<?xml version="1.0" encoding="UTF-8"?>
<svg version="1.1" xmlns="http://www.w3.org/2000/svg" width="500" height="333">
<path d="M0 0 C165 0 330 0 500 0 C500 109.89 500 219.78 500 333 C335 333 170 333 0 333 C0 223.11 0 113.22 0 0 Z " fill="#F4EEEA" transform="translate(0,0)"/>
<path d="M0 0 C74.25 0 148.5 0 225 0 C225 74.25 225 148.5 225 225 C206.63680556 215.81840278 206.63680556 215.81840278 197.6875 211.125 C196.7073291 210.61380615 195.7271582 210.1026123 194.71728516 209.57592773 C190.23605202 207.23572821 185.76439439 204.88213409 181.32421875 202.46484375 C157.49284128 189.53588946 132.60004065 179.73242716 107.17895508 170.44335938 C67.69751915 155.97266677 67.69751915 155.97266677 52 143 C51.16210938 142.36964844 50.32421875 141.73929688 49.4609375 141.08984375 C37.89907907 131.27144016 34.09719889 113.26239864 32.68823242 98.79980469 C32.43243042 95.40936959 32.20777813 92.0187095 32 88.625 C30.52976021 64.77444345 25.13740094 44.06912195 12.984375 23.390625 C10.74661102 19.56704402 8.62422952 15.69079364 6.51953125 11.79296875 C4.37292485 7.84740685 2.18136283 3.9264531 0 0 Z " fill="#D5BCBA" transform="translate(275,0)"/>
<path d="M0 0 C4.14103371 3.10577528 8.28094547 6.21100453 12.41015625 9.33203125 C37.89098048 28.4644186 61.4998736 38.49314378 92.88427734 43.77636719 C120.54099282 48.46818214 120.54099282 48.46818214 130.375 58.125 C130.85791504 58.5988916 131.34083008 59.0727832 131.83837891 59.56103516 C139.84612993 67.63244501 145.81693455 77.19666152 152.0625 86.625 C163.05719945 103.19933618 175.65372276 117.35847653 191.28515625 129.74609375 C211.96276558 146.91297229 222.01588126 166.14293131 225 193 C225 203.56 225 214.12 225 225 C150.75 225 76.5 225 0 225 C0 150.75 0 76.5 0 0 Z " fill="#D5BCBA" transform="translate(0,108)"/>
<path d="M0 0 C49.5 0 99 0 150 0 C150 49.5 150 99 150 150 C134 142 134 142 126.5625 138.25 C119.50601944 134.71615934 112.4143473 131.25409556 105.3125 127.8125 C104.29164307 127.31331055 103.27078613 126.81412109 102.21899414 126.29980469 C94.94748915 122.7926817 87.56687581 119.80629225 80 117 C77.84465672 116.19115691 75.68970742 115.3812632 73.53515625 114.5703125 C72.47498291 114.17134766 71.41480957 113.77238281 70.32250977 113.36132812 C34.82252454 99.89829171 34.82252454 99.89829171 27.28125 87.078125 C23.67897018 78.99393889 22.24564217 70.86146567 21.65234375 62.0859375 C20.25853761 42.09676118 14.90716507 26.3332314 5 9 C3.35 6.03 1.7 3.06 0 0 Z " fill="#7E6588" transform="translate(350,0)"/>
<path d="M0 0 C2.64 1.98 5.28 3.96 8 6 C12.27057221 9.09909355 16.60514796 12.08172853 21 15 C22.07121094 15.71929687 23.14242188 16.43859375 24.24609375 17.1796875 C36.50570742 24.83292101 50.0310521 27.22932681 64.125 29.5625 C76.83922435 31.70195482 85.99207307 35.76957426 93.75683594 46.40673828 C96.40039651 50.21103621 98.97677634 54.05768764 101.54394531 57.91381836 C110.75231442 71.72520876 122.53916598 82.48262866 134.8203125 93.5390625 C144.23568048 102.31610045 146.88505863 111.54023452 150 124 C150 132.58 150 141.16 150 150 C100.5 150 51 150 0 150 C0 100.5 0 51 0 0 Z " fill="#7E6588" transform="translate(0,183)"/>
<path d="M0 0 C24.75 0 49.5 0 75 0 C75 24.75 75 49.5 75 75 C69.72 72.36 64.44 69.72 59 67 C55.44531851 65.39442419 51.90572801 63.82079044 48.3125 62.3125 C47.42530273 61.93440186 46.53810547 61.55630371 45.62402344 61.16674805 C40.70651964 59.08526733 35.7657347 57.14280319 30.75 55.3125 C23.79845488 52.69438561 17.1140549 49.40773153 13 43 C12.33984375 41.09765625 12.33984375 41.09765625 11.9375 39.0625 C11.77894531 38.27746094 11.62039063 37.49242187 11.45703125 36.68359375 C10.94410413 33.67179094 10.53890938 30.65193729 10.125 27.625 C8.57617548 17.31150961 4.68470632 9.36941264 0 0 Z " fill="#304674" transform="translate(425,0)"/>
<path d="M0 0 C3.58895318 1.79447659 6.81535973 3.77401216 10.1875 5.9375 C17.25004239 10.34690757 23.52067775 12.61504764 31.6875 14 C39.91218433 15.43187401 44.08334956 18.46037758 49 25 C49.85851563 26.24523437 49.85851563 26.24523437 50.734375 27.515625 C55.30643523 34.12810881 60.19755621 39.19894385 66.265625 44.39453125 C71.43675243 49.32187696 73.81342853 53.97945214 75 61 C75 65.29 75 69.58 75 74 C50.25 74 25.5 74 0 74 C0 49.58 0 25.16 0 0 Z " fill="#304674" transform="translate(0,259)"/>
</svg>
